<svg width="22" height="20" viewBox="0 0 22 20" fill="none" xmlns="http://www.w3.org/2000/svg">
<path fill-rule="evenodd" clip-rule="evenodd" d="M10.9348 16.1005C12.2596 15.4807 16.7352 13.0941 16.7352 9.13752C16.7352 6.07694 13.9748 3.59586 10.5696 3.59586C7.16446 3.59586 4.40402 6.07694 4.40402 9.13752C4.40402 13.0941 8.87963 15.4807 10.2044 16.1005C10.4383 16.2099 10.7009 16.2099 10.9348 16.1005ZM10.5696 11.5125C12.029 11.5125 13.212 10.4492 13.212 9.13752C13.212 7.82585 12.029 6.76252 10.5696 6.76252C9.11027 6.76252 7.92723 7.82585 7.92723 9.13752C7.92723 10.4492 9.11027 11.5125 10.5696 11.5125Z" fill="white"/>
</svg>
