<svg width="169" height="169" viewBox="0 0 169 169" fill="none" xmlns="http://www.w3.org/2000/svg">
<rect width="169" height="169" fill="#FFB563"/>
<path fill-rule="evenodd" clip-rule="evenodd" d="M69.8659 90.8684C68.6148 88.9007 69.0089 86.9272 69.2812 85.9978C69.5118 85.2106 69.9076 84.3547 70.1866 83.7512C70.2098 83.7009 70.2323 83.6524 70.2537 83.6058L79.2465 64.0851C79.2606 64.0546 79.2756 64.0221 79.2913 63.9877C79.4607 63.6187 79.7248 63.0433 79.998 62.5861C80.1357 62.3555 80.499 61.7614 81.1199 61.2176C81.8271 60.5981 83.3425 59.6721 85.3506 60.1166C87.3587 60.5611 88.3467 62.0411 88.7295 62.9019C89.0655 63.6576 89.1469 64.35 89.1755 64.6175C89.2322 65.1477 89.2314 65.7813 89.2308 66.1877C89.2307 66.2256 89.2307 66.2614 89.2307 66.2951V75.7983H92.5691C92.6202 75.7983 92.6735 75.7982 92.7286 75.7981C93.3908 75.7972 94.33 75.7959 95.1377 75.9163C96.0913 76.0584 98.039 76.5281 99.2901 78.4958C100.541 80.4635 100.147 82.437 99.8748 83.3664C99.6442 84.1535 99.2485 85.0095 98.9695 85.613C98.9462 85.6633 98.9238 85.7118 98.9023 85.7584L89.9095 105.279C89.8955 105.31 89.8805 105.342 89.8648 105.376C89.6954 105.745 89.4313 106.321 89.1581 106.778C89.0203 107.009 88.657 107.603 88.0362 108.147C87.329 108.766 85.8136 109.692 83.8055 109.248C81.7974 108.803 80.8094 107.323 80.4266 106.462C80.0905 105.707 80.0092 105.014 79.9806 104.747C79.9238 104.216 79.9247 103.583 79.9253 103.176C79.9253 103.139 79.9254 103.103 79.9254 103.069V93.5659H76.5869C76.5359 93.5659 76.4826 93.566 76.4275 93.5661C75.7652 93.567 74.8261 93.5683 74.0184 93.4479C73.0648 93.3057 71.1171 92.836 69.8659 90.8684ZM84.578 89.4747C84.578 89.1992 84.578 89.0614 84.4929 88.9758C84.4077 88.8902 84.2706 88.8902 83.9964 88.8902H76.5869C74.9487 88.8902 74.1296 88.8902 73.7865 88.3507C73.4435 87.8112 73.7876 87.0642 74.4759 85.5702L83.4687 66.0495C83.9039 65.1047 84.1215 64.6323 84.3498 64.6829C84.578 64.7334 84.578 65.2539 84.578 66.2951V79.8895C84.578 80.165 84.578 80.3028 84.6632 80.3884C84.7484 80.474 84.8855 80.474 85.1596 80.474H92.5691C94.2074 80.474 95.0265 80.474 95.3696 81.0135C95.7126 81.553 95.3685 82.3 94.6802 83.794L85.6874 103.315C85.2521 104.259 85.0345 104.732 84.8063 104.681C84.578 104.631 84.578 104.11 84.578 103.069V89.4747Z" fill="white" fill-opacity="0.2"/>
</svg>
