<svg width="24" height="38" viewBox="0 0 24 38" fill="none" xmlns="http://www.w3.org/2000/svg">
<path fill-rule="evenodd" clip-rule="evenodd" d="M0.667047 23.7621C-0.29673 22.2475 0.00688072 20.7282 0.216628 20.0128C0.394271 19.4069 0.699111 18.748 0.91406 18.2834C0.931961 18.2447 0.949239 18.2073 0.965768 18.1715L7.89307 3.1447C7.9039 3.12121 7.91542 3.09614 7.92756 3.0697C8.05805 2.78562 8.26148 2.34272 8.47189 1.99077C8.57803 1.81324 8.85788 1.35592 9.33614 0.937272C9.88091 0.4604 11.0482 -0.252389 12.5951 0.0897686C14.142 0.431922 14.9031 1.57125 15.1979 2.23385C15.4568 2.81554 15.5194 3.34862 15.5415 3.55451C15.5852 3.96266 15.5845 4.4504 15.5841 4.76324C15.5841 4.79237 15.584 4.81998 15.584 4.84587V12.1613H18.1557C18.195 12.1613 18.236 12.1613 18.2785 12.1612C18.7886 12.1605 19.5121 12.1595 20.1342 12.2522C20.8688 12.3616 22.3692 12.7232 23.333 14.2379C24.2967 15.7526 23.9931 17.2718 23.7834 17.9872C23.6057 18.5931 23.3009 19.252 23.0859 19.7166C23.068 19.7553 23.0508 19.7927 23.0342 19.8285L16.1069 34.8553C16.0961 34.8788 16.0846 34.9038 16.0724 34.9303C15.942 35.2144 15.7385 35.6573 15.5281 36.0092C15.422 36.1868 15.1421 36.6441 14.6639 37.0627C14.1191 37.5396 12.9518 38.2524 11.4049 37.9102C9.85802 37.5681 9.09692 36.4287 8.80206 35.7661C8.5432 35.1845 8.48056 34.6514 8.45851 34.4455C8.4148 34.0373 8.41547 33.5496 8.4159 33.2368C8.41595 33.2076 8.41598 33.18 8.41598 33.1541V25.8387H5.84433C5.80498 25.8387 5.76398 25.8387 5.72149 25.8388C5.21137 25.8395 4.48791 25.8405 3.86576 25.7478C3.13117 25.6384 1.63083 25.2768 0.667047 23.7621ZM12 22.6893C12 22.4772 12 22.3711 11.9344 22.3053C11.8688 22.2394 11.7632 22.2394 11.552 22.2394H5.84433C4.58236 22.2394 3.95138 22.2394 3.68713 21.8241C3.42287 21.4088 3.68796 20.8337 4.21814 19.6836L11.1454 4.65685C11.4807 3.92957 11.6484 3.56593 11.8242 3.60482C12 3.64371 12 4.04443 12 4.84587V15.3107C12 15.5228 12 15.6289 12.0656 15.6947C12.1312 15.7606 12.2368 15.7606 12.448 15.7606H18.1557C19.4176 15.7606 20.0486 15.7606 20.3129 16.1759C20.5771 16.5912 20.312 17.1663 19.7819 18.3164L12.8545 33.3431C12.5193 34.0704 12.3516 34.4341 12.1758 34.3952C12 34.3563 12 33.9556 12 33.1541V22.6893Z" fill="#F85E00"/>
</svg>
